<mxfile host="app.diagrams.net" modified="2022-01-22T10:15:41.090Z" agent="5.0 (Windows NT 10.0; Win64; x64) AppleWebKit/537.36 (KHTML, like Gecko) Chrome/98.0.4750.0 Safari/537.36" etag="h3O3nJpgDAbDngnN2uc7" version="16.1.2" type="github">
  <diagram id="RsZCCI59v2fd9i0A3_Uv" name="Page-1">
    <mxGraphModel dx="705" dy="317" grid="1" gridSize="10" guides="1" tooltips="1" connect="1" arrows="1" fold="1" page="1" pageScale="1" pageWidth="827" pageHeight="1169" math="0" shadow="0">
      <root>
        <mxCell id="0" />
        <mxCell id="1" parent="0" />
        <mxCell id="pxyAfbDeU9kV4l9WtauX-1" value="代理节点" style="rhombus;whiteSpace=wrap;html=1;" vertex="1" parent="1">
          <mxGeometry x="293" y="260" width="120" height="80" as="geometry" />
        </mxCell>
        <mxCell id="pxyAfbDeU9kV4l9WtauX-7" style="edgeStyle=orthogonalEdgeStyle;rounded=0;orthogonalLoop=1;jettySize=auto;html=1;exitX=0;exitY=1;exitDx=0;exitDy=0;" edge="1" parent="1" source="pxyAfbDeU9kV4l9WtauX-2" target="pxyAfbDeU9kV4l9WtauX-1">
          <mxGeometry relative="1" as="geometry" />
        </mxCell>
        <mxCell id="pxyAfbDeU9kV4l9WtauX-2" value="Server 1" style="ellipse;whiteSpace=wrap;html=1;" vertex="1" parent="1">
          <mxGeometry x="460" y="150" width="80" height="50" as="geometry" />
        </mxCell>
        <mxCell id="pxyAfbDeU9kV4l9WtauX-8" style="edgeStyle=orthogonalEdgeStyle;rounded=0;orthogonalLoop=1;jettySize=auto;html=1;exitX=0;exitY=0.5;exitDx=0;exitDy=0;entryX=0.737;entryY=0.19;entryDx=0;entryDy=0;entryPerimeter=0;" edge="1" parent="1" source="pxyAfbDeU9kV4l9WtauX-3" target="pxyAfbDeU9kV4l9WtauX-1">
          <mxGeometry relative="1" as="geometry" />
        </mxCell>
        <mxCell id="pxyAfbDeU9kV4l9WtauX-3" value="Server 2" style="ellipse;whiteSpace=wrap;html=1;" vertex="1" parent="1">
          <mxGeometry x="460" y="230" width="80" height="50" as="geometry" />
        </mxCell>
        <mxCell id="pxyAfbDeU9kV4l9WtauX-9" style="edgeStyle=orthogonalEdgeStyle;rounded=0;orthogonalLoop=1;jettySize=auto;html=1;exitX=0;exitY=0.5;exitDx=0;exitDy=0;entryX=1;entryY=1;entryDx=0;entryDy=0;" edge="1" parent="1" source="pxyAfbDeU9kV4l9WtauX-4" target="pxyAfbDeU9kV4l9WtauX-1">
          <mxGeometry relative="1" as="geometry" />
        </mxCell>
        <mxCell id="pxyAfbDeU9kV4l9WtauX-4" value="Server 3" style="ellipse;whiteSpace=wrap;html=1;" vertex="1" parent="1">
          <mxGeometry x="460" y="320" width="80" height="50" as="geometry" />
        </mxCell>
        <mxCell id="pxyAfbDeU9kV4l9WtauX-10" style="edgeStyle=orthogonalEdgeStyle;rounded=0;orthogonalLoop=1;jettySize=auto;html=1;exitX=0;exitY=0.5;exitDx=0;exitDy=0;entryX=0.5;entryY=1;entryDx=0;entryDy=0;" edge="1" parent="1" source="pxyAfbDeU9kV4l9WtauX-5" target="pxyAfbDeU9kV4l9WtauX-1">
          <mxGeometry relative="1" as="geometry" />
        </mxCell>
        <mxCell id="pxyAfbDeU9kV4l9WtauX-5" value="Server ..." style="ellipse;whiteSpace=wrap;html=1;" vertex="1" parent="1">
          <mxGeometry x="460" y="400" width="80" height="50" as="geometry" />
        </mxCell>
        <mxCell id="pxyAfbDeU9kV4l9WtauX-17" style="edgeStyle=orthogonalEdgeStyle;rounded=0;orthogonalLoop=1;jettySize=auto;html=1;exitX=1;exitY=0.5;exitDx=0;exitDy=0;" edge="1" parent="1" source="pxyAfbDeU9kV4l9WtauX-11">
          <mxGeometry relative="1" as="geometry">
            <mxPoint x="290" y="300" as="targetPoint" />
          </mxGeometry>
        </mxCell>
        <mxCell id="pxyAfbDeU9kV4l9WtauX-11" value="Client 1" style="rounded=0;whiteSpace=wrap;html=1;" vertex="1" parent="1">
          <mxGeometry x="50" y="200" width="80" height="50" as="geometry" />
        </mxCell>
        <mxCell id="pxyAfbDeU9kV4l9WtauX-15" style="edgeStyle=orthogonalEdgeStyle;rounded=0;orthogonalLoop=1;jettySize=auto;html=1;exitX=1;exitY=0.5;exitDx=0;exitDy=0;" edge="1" parent="1" source="pxyAfbDeU9kV4l9WtauX-12">
          <mxGeometry relative="1" as="geometry">
            <mxPoint x="290" y="300.2413793103449" as="targetPoint" />
          </mxGeometry>
        </mxCell>
        <mxCell id="pxyAfbDeU9kV4l9WtauX-12" value="Client 2" style="rounded=0;whiteSpace=wrap;html=1;" vertex="1" parent="1">
          <mxGeometry x="50" y="275" width="80" height="50" as="geometry" />
        </mxCell>
        <mxCell id="pxyAfbDeU9kV4l9WtauX-16" style="edgeStyle=orthogonalEdgeStyle;rounded=0;orthogonalLoop=1;jettySize=auto;html=1;exitX=1;exitY=0.5;exitDx=0;exitDy=0;" edge="1" parent="1" source="pxyAfbDeU9kV4l9WtauX-13">
          <mxGeometry relative="1" as="geometry">
            <mxPoint x="290" y="300" as="targetPoint" />
          </mxGeometry>
        </mxCell>
        <mxCell id="pxyAfbDeU9kV4l9WtauX-13" value="Client ..." style="rounded=0;whiteSpace=wrap;html=1;" vertex="1" parent="1">
          <mxGeometry x="50" y="350" width="80" height="50" as="geometry" />
        </mxCell>
      </root>
    </mxGraphModel>
  </diagram>
</mxfile>
